<?xml version="1.0" encoding="UTF-8" standalone="no"?>
<!-- Uploaded to: SVG Repo, www.svgrepo.com, Generator: SVG Repo Mixer Tools -->

<svg
   fill="#000000"
   height="622.40765"
   width="622.40765"
   version="1.1"
   id="Layer_1"
   viewBox="0 0 256.74316 256.74316"
   xml:space="preserve"
   sodipodi:docname="right-arrow.svg"
   inkscape:version="1.2.2 (b0a8486541, 2022-12-01)"
   xmlns:inkscape="http://www.inkscape.org/namespaces/inkscape"
   xmlns:sodipodi="http://sodipodi.sourceforge.net/DTD/sodipodi-0.dtd"
   xmlns="http://www.w3.org/2000/svg"
   xmlns:svg="http://www.w3.org/2000/svg"><defs
   id="defs99" /><sodipodi:namedview
   id="namedview97"
   pagecolor="#ffffff"
   bordercolor="#cccccc"
   borderopacity="1"
   inkscape:showpageshadow="0"
   inkscape:pageopacity="0"
   inkscape:pagecheckerboard="0"
   inkscape:deskcolor="#d1d1d1"
   showgrid="false"
   inkscape:zoom="0.53033233"
   inkscape:cx="254.55736"
   inkscape:cy="140.47795"
   inkscape:window-width="2238"
   inkscape:window-height="1358"
   inkscape:window-x="0"
   inkscape:window-y="20"
   inkscape:window-maximized="1"
   inkscape:current-layer="Layer_1" />
<path
   id="XMLID_27_"
   d="m 127.69448,36.830101 c -3.14656,0.145434 -6.26997,1.758084 -8.55285,3.988602 -4.44927,4.597082 -9.0287,9.071994 -13.53054,13.619732 C 84.962843,75.136661 64.249143,95.773811 43.6665,116.5342 c -3.370519,4.2275 -3.524635,10.67157 -0.164112,14.99755 3.112489,4.07911 8.8853,6.07911 13.735718,4.25043 2.97012,-0.96082 5.207353,-3.15803 7.271267,-5.39196 17.17856,-17.17662 34.35454,-34.355819 51.534717,-51.530819 0.0107,43.187489 0.004,86.375539 0.0261,129.562679 0.30533,4.90822 3.72539,9.39303 8.42284,10.91819 4.71735,1.56067 10.44212,-0.0645 13.51667,-4.09067 2.26884,-2.89124 2.9643,-6.7382 2.67296,-10.29137 -0.0384,-42.03294 -0.0212,-84.06589 -0.0213,-126.098829 18.37158,18.33918 36.69113,36.730489 55.14649,54.984369 4.33458,3.39726 10.85059,3.45922 15.14968,-0.0335 4.03351,-3.16468 5.87524,-8.99771 3.97595,-13.83295 -1.26244,-3.5973 -4.35115,-6.02538 -6.94327,-8.64391 -23.98957,-23.961109 -47.93735,-47.966379 -72.00706,-71.84443 -2.30845,-1.874264 -5.35348,-2.792212 -8.28858,-2.658889 z" />
<circle
   style="color:#000000;overflow:visible;fill:none;stroke:#000000;stroke-width:11.9409;stroke-dasharray:none;stroke-opacity:1;stop-color:#000000"
   id="path357"
   cx="128.37157"
   cy="128.37157"
   r="122.40112" /></svg>
