<?xml version="1.0" encoding="UTF-8" standalone="no"?>
<!-- Created with Inkscape (http://www.inkscape.org/) -->

<svg
   width="128mm"
   height="128mm"
   viewBox="0 0 128 128"
   version="1.1"
   id="svg5"
   xml:space="preserve"
   inkscape:version="1.2.2 (b0a8486541, 2022-12-01)"
   sodipodi:docname="logo.svg"
   inkscape:export-filename="logo.png"
   inkscape:export-xdpi="90"
   inkscape:export-ydpi="90"
   xmlns:inkscape="http://www.inkscape.org/namespaces/inkscape"
   xmlns:sodipodi="http://sodipodi.sourceforge.net/DTD/sodipodi-0.dtd"
   xmlns="http://www.w3.org/2000/svg"
   xmlns:svg="http://www.w3.org/2000/svg"><sodipodi:namedview
     id="namedview7"
     pagecolor="#ffff00"
     bordercolor="#cccccc"
     borderopacity="1"
     inkscape:showpageshadow="0"
     inkscape:pageopacity="1"
     inkscape:pagecheckerboard="0"
     inkscape:deskcolor="#d1d1d1"
     inkscape:document-units="mm"
     showgrid="false"
     inkscape:zoom="0.50589878"
     inkscape:cx="-118.6008"
     inkscape:cy="121.56582"
     inkscape:window-width="2238"
     inkscape:window-height="1358"
     inkscape:window-x="0"
     inkscape:window-y="20"
     inkscape:window-maximized="1"
     inkscape:current-layer="layer1" /><defs
     id="defs2" /><g
     inkscape:label="Layer 1"
     inkscape:groupmode="layer"
     id="layer1"
     transform="translate(-99.355237,-59.234084)"><path
       style="fill:#000000;stroke-width:0.253922"
       d="M 115.74487,134.52463 V 89.07259 l 9.07771,7.8e-5 9.0777,8.2e-5 12.11191,36.12032 c 6.66155,19.86618 12.4848,37.29155 12.94054,38.72303 0.45575,1.43149 0.89004,2.60253 0.96507,2.60234 0.0751,-1.9e-4 1.06707,-2.77113 2.20448,-6.15761 1.13742,-3.38649 6.94947,-20.1547 12.91565,-37.26269 5.9662,-17.108 11.07355,-31.762471 11.34967,-32.565499 l 0.50204,-1.460051 h 7.97524 7.97523 v 45.45204 45.45203 h -5.84021 -5.8402 v -14.72747 -14.72747 h -8.07794 -8.07793 l -4.2725,12.25173 c -2.34986,6.73845 -4.67092,13.36801 -5.1579,14.73234 l -0.8854,2.4806 -5.47058,-0.0684 -5.4706,-0.0684 -13.09731,-38.46918 -13.09731,-38.46918 -0.0643,38.53267 -0.0643,38.53265 h -5.83938 -5.83939 z m 75.40325,-10.34732 -0.012,-19.74244 -6.84431,19.54686 c -3.76437,10.75076 -6.84432,19.63486 -6.84432,19.74243 0,0.10761 3.08515,0.19559 6.85589,0.19559 h 6.8559 l -0.012,-19.74244 z m -2.73925,-40.66342 c 0.0465,-0.124488 1.85574,-4.005671 4.02043,-8.624853 l 3.9358,-8.398512 7.30025,-0.0085 c 4.01514,-0.0047 7.30026,0.05842 7.30026,0.140221 0,0.08179 -3.03665,3.9668 -6.74812,8.633347 l -6.74812,8.48463 h -4.57257 c -2.57092,0 -4.53552,-0.09908 -4.48793,-0.226338 z"
       id="path339" /></g></svg>
